<?xml version="1.0" standalone="no"?>
<!DOCTYPE svg PUBLIC "-//W3C//DTD SVG 20010904//EN"
 "http://www.w3.org/TR/2001/REC-SVG-20010904/DTD/svg10.dtd">
<svg version="1.0" xmlns="http://www.w3.org/2000/svg"
 width="64.000000pt" height="64.000000pt" viewBox="0 0 64.000000 64.000000"
 preserveAspectRatio="xMidYMid meet">
<metadata>
Created by potrace 1.16, written by Peter Selinger 2001-2019
</metadata>
<g transform="translate(0.000000,64.000000) scale(0.100000,-0.100000)"
fill="#000000" stroke="none">
<path d="M66 618 c-24 -33 -24 -563 0 -596 15 -22 18 -22 270 -22 l254 0 0 25
0 25 -224 0 c-123 0 -231 3 -240 6 -21 8 -21 30 0 38 9 3 117 6 240 6 l224 0
0 60 c0 45 -4 62 -15 66 -23 9 -45 -15 -45 -47 l0 -29 -160 0 -160 0 0 220 0
220 160 0 160 0 0 -129 c0 -71 3 -136 6 -145 3 -9 17 -16 30 -16 l24 0 0 170
0 170 -254 0 c-252 0 -255 0 -270 -22z m84 -248 c0 -213 -1 -220 -20 -220 -19
0 -20 7 -20 214 0 212 1 222 33 225 4 1 7 -98 7 -219z"/>
</g>
</svg>
