<?xml version="1.0" standalone="no"?>
<!DOCTYPE svg PUBLIC "-//W3C//DTD SVG 20010904//EN"
 "http://www.w3.org/TR/2001/REC-SVG-20010904/DTD/svg10.dtd">
<svg version="1.0" xmlns="http://www.w3.org/2000/svg"
 width="512.000000pt" height="512.000000pt" viewBox="0 0 512.000000 512.000000"
 preserveAspectRatio="xMidYMid meet">
<metadata>
Created by potrace 1.16, written by Peter Selinger 2001-2019
</metadata>
<g transform="translate(0.000000,512.000000) scale(0.100000,-0.100000)"
fill="#000000" stroke="none">
<path d="M850 5104 c-217 -58 -374 -219 -431 -442 -18 -73 -19 -131 -19 -2102
0 -1984 0 -2028 20 -2104 53 -210 203 -369 405 -432 l80 -24 1847 2 1846 3 39
31 c109 87 109 241 0 328 l-39 31 -1816 5 c-1470 4 -1823 8 -1847 18 -68 30
-125 112 -125 182 0 70 57 152 125 182 24 10 377 14 1847 18 l1816 5 39 31
c21 16 48 50 61 74 22 43 22 51 22 390 0 339 0 347 -22 390 -13 24 -40 58 -61
74 -36 29 -44 31 -122 31 -78 0 -86 -2 -122 -31 -21 -16 -48 -50 -61 -74 -21
-42 -22 -56 -22 -267 l0 -223 -1350 0 -1350 0 0 1760 0 1760 1350 0 1350 0 0
-1083 0 -1083 23 -44 c12 -24 39 -58 60 -74 36 -29 44 -31 122 -31 78 0 86 2
122 31 21 16 48 50 60 74 l23 44 0 1206 0 1206 -22 44 c-13 24 -40 58 -61 74
l-39 31 -1846 2 c-1604 2 -1854 0 -1902 -13z m350 -2144 l0 -1760 -148 0 c-99
0 -164 -5 -195 -14 l-47 -14 0 1691 c0 1615 1 1694 19 1732 24 53 81 102 128
110 21 4 43 8 48 10 6 2 52 4 103 4 l92 1 0 -1760z"/>
<path d="M2215 3914 c-138 -72 -154 -251 -32 -348 l39 -31 738 0 738 0 39 31
c109 87 109 241 0 328 l-39 31 -726 3 c-645 2 -730 0 -757 -14z"/>
</g>
</svg>
