<?xml version="1.0" standalone="no"?>
<!DOCTYPE svg PUBLIC "-//W3C//DTD SVG 20010904//EN"
 "http://www.w3.org/TR/2001/REC-SVG-20010904/DTD/svg10.dtd">
<svg version="1.0" xmlns="http://www.w3.org/2000/svg"
 width="512.000000pt" height="512.000000pt" viewBox="0 0 512.000000 512.000000"
 preserveAspectRatio="xMidYMid meet">
<metadata>
Created by potrace 1.16, written by Peter Selinger 2001-2019
</metadata>
<g transform="translate(0.000000,512.000000) scale(0.100000,-0.100000)"
fill="#000000" stroke="none">
<path d="M2013 5106 c-102 -32 -195 -115 -239 -210 -15 -32 -35 -120 -55 -232
-17 -98 -38 -197 -48 -220 -44 -99 -139 -164 -251 -172 -61 -4 -75 0 -245 64
-176 66 -182 68 -275 68 -132 0 -193 -25 -280 -113 -56 -57 -95 -118 -278
-439 -118 -205 -222 -389 -232 -410 -50 -103 -46 -242 10 -351 36 -71 61 -96
218 -226 167 -138 201 -189 201 -305 0 -116 -34 -167 -201 -305 -157 -130
-182 -156 -218 -226 -40 -78 -54 -165 -40 -247 14 -84 10 -76 262 -514 183
-321 222 -382 278 -439 87 -88 148 -113 280 -113 93 0 99 2 275 68 170 64 184
68 245 64 112 -8 207 -73 251 -172 10 -23 31 -122 48 -220 20 -114 40 -200 56
-233 32 -70 119 -157 192 -191 l58 -27 535 0 535 0 58 27 c73 34 160 121 192
191 16 33 36 119 56 233 17 98 38 197 48 220 44 99 139 164 251 172 61 4 75 0
245 -64 176 -66 182 -68 275 -68 132 0 193 25 280 113 56 57 95 118 278 437
117 204 221 389 231 411 50 102 46 244 -9 351 -36 72 -61 97 -218 227 -167
138 -201 189 -201 305 0 111 36 170 174 282 215 176 264 240 285 373 12 76 0
164 -31 228 -10 22 -114 207 -231 411 -183 319 -222 380 -278 437 -87 88 -148
113 -280 113 -93 0 -99 -2 -275 -68 -170 -64 -184 -68 -245 -64 -112 8 -207
73 -251 172 -10 23 -31 122 -48 221 -24 137 -38 195 -61 242 -36 73 -110 144
-190 182 l-55 26 -520 2 c-410 2 -529 -1 -562 -11z m986 -533 c27 -170 57
-274 103 -356 124 -220 359 -357 613 -357 109 0 188 19 371 87 l131 50 208
-360 c172 -298 205 -361 194 -371 -8 -7 -65 -54 -126 -105 -145 -119 -194
-175 -249 -286 -52 -105 -74 -197 -74 -315 0 -118 22 -210 74 -315 55 -111
104 -167 249 -286 61 -51 118 -98 126 -105 11 -10 -22 -73 -194 -371 l-208
-360 -131 50 c-183 68 -262 87 -371 87 -309 0 -576 -195 -669 -490 -13 -41
-34 -141 -47 -222 l-23 -148 -416 0 -416 0 -23 147 c-13 82 -34 182 -47 223
-93 295 -360 490 -669 490 -109 0 -188 -19 -371 -87 l-131 -50 -208 360 c-171
297 -205 361 -194 371 8 7 65 54 126 105 145 119 194 175 249 286 52 105 74
197 74 315 0 118 -22 210 -74 315 -55 111 -104 167 -249 286 -61 51 -118 98
-126 105 -11 10 23 74 194 371 l208 359 143 -53 c201 -75 256 -86 389 -80 194
8 350 79 485 223 114 121 161 235 201 487 l23 147 416 0 416 0 23 -147z"/>
<path d="M2360 3530 c-467 -100 -790 -497 -790 -970 0 -483 343 -892 817 -975
609 -106 1163 358 1163 975 0 480 -336 885 -810 974 -109 21 -273 19 -380 -4z
m350 -411 c102 -28 162 -62 243 -138 238 -224 250 -578 28 -814 -225 -238
-578 -250 -814 -28 -250 236 -250 607 0 842 150 141 350 192 543 138z"/>
</g>
</svg>
